<svg width="140" height="19" viewBox="0 0 140 19" fill="none" xmlns="http://www.w3.org/2000/svg">
<path d="M3.60851 18.358C3.60851 18.6214 3.47486 18.7531 3.20756 18.7531H0.400945C0.133648 18.7531 0 18.6214 0 18.358V5.27161C0 5.00823 0.133648 4.87655 0.400945 4.87655H3.20756C3.47486 4.87655 3.60851 5.00823 3.60851 5.27161V18.358Z" fill="#060D14"/>
<path d="M9.91713 18.358C9.91713 18.6214 9.78348 18.7531 9.51618 18.7531H6.8098C6.54251 18.7531 6.40886 18.6214 6.40886 18.358V5.27161C6.40886 5.00823 6.54251 4.87655 6.8098 4.87655H9.90711C10.1209 4.87655 10.2813 4.96214 10.3882 5.13334L15.1896 12.7185V5.27161C15.1896 5.00823 15.3232 4.87655 15.5905 4.87655H18.2969C18.5642 4.87655 18.6978 5.00823 18.6978 5.27161V18.358C18.6978 18.6214 18.5642 18.7531 18.2969 18.7531H15.5404C15.3332 18.7531 15.1729 18.6675 15.0593 18.4963L9.91713 10.4765V18.358Z" fill="#060D14"/>
<path d="M25.111 18.358C25.111 18.6214 24.9773 18.7531 24.71 18.7531H21.9034C21.6361 18.7531 21.5024 18.6214 21.5024 18.358V5.27161C21.5024 5.00823 21.6361 4.87655 21.9034 4.87655H30.7543C31.0216 4.87655 31.1552 5.00823 31.1552 5.27161V7.69136C31.1552 7.95473 31.0216 8.08642 30.7543 8.08642H25.111V11.0395H29.3109C29.5782 11.0395 29.7118 11.1712 29.7118 11.4346V13.6568C29.7118 13.9202 29.5782 14.0519 29.3109 14.0519H25.111V18.358Z" fill="#060D14"/>
<path d="M39.2343 19C37.8778 19 36.6382 18.6774 35.5156 18.0321C34.3996 17.3868 33.5175 16.5144 32.8693 15.4148C32.2278 14.3152 31.9071 13.107 31.9071 11.7901C31.9071 10.4733 32.2278 9.26502 32.8693 8.16543C33.5175 7.06584 34.7414 5.60741 35.8573 4.97531C38.1412 3.6817 39.3531 0 39.3531 0C39.3531 0 40.4682 3.53086 42.893 5.27161C43.2372 5.51876 44.9378 7.07572 45.5793 8.17531C46.2275 9.26831 46.5516 10.4733 46.5516 11.7901C46.5516 13.1004 46.2275 14.3086 45.5793 15.4148C44.9378 16.5144 44.0557 17.3868 42.933 18.0321C41.8171 18.6774 40.5842 19 39.2343 19ZM39.2343 15.5926C39.8825 15.5926 40.4873 15.428 41.0486 15.0988C41.6099 14.763 42.0577 14.3054 42.3918 13.7259C42.7259 13.1399 42.893 12.4979 42.893 11.8C42.893 11.1021 42.7226 10.4634 42.3817 9.88395C42.0476 9.30453 41.5999 8.85021 41.0386 8.52099C40.4773 8.18519 39.8758 8.01728 39.2343 8.01728C38.5861 8.01728 37.9814 8.18519 37.4201 8.52099C36.8587 8.85021 36.4077 9.30453 36.0669 9.88395C35.7327 10.4634 35.5657 11.1021 35.5657 11.8C35.5657 12.4979 35.7327 13.1366 36.0669 13.716C36.4077 14.2955 36.8587 14.7531 37.4201 15.0889C37.9881 15.4247 38.5928 15.5926 39.2343 15.5926Z" fill="#1B9AAA"/>
<path d="M59.0335 18.358C59.0335 18.6214 58.8999 18.7531 58.6326 18.7531H49.05C48.7827 18.7531 48.6491 18.6214 48.6491 18.358V5.27161C48.6491 5.00823 48.7827 4.87655 49.05 4.87655H58.4822C58.7495 4.87655 58.8832 5.00823 58.8832 5.27161V7.69136C58.8832 7.95473 58.7495 8.08642 58.4822 8.08642H52.2576V10.2494H57.0388C57.3061 10.2494 57.4398 10.3811 57.4398 10.6444V12.8667C57.4398 13.13 57.3061 13.2617 57.0388 13.2617H52.2576V15.5432H58.6326C58.8999 15.5432 59.0335 15.6749 59.0335 15.9383V18.358Z" fill="#060D14"/>
<path d="M64.1461 18.3778C64.1127 18.628 63.9724 18.7531 63.7252 18.7531H60.8885C60.7548 18.7531 60.6546 18.7169 60.5878 18.6444C60.5209 18.572 60.4942 18.47 60.5076 18.3383L62.2216 5.24198C62.235 5.12346 62.2784 5.03457 62.3519 4.97531C62.4321 4.90947 62.5323 4.87655 62.6526 4.87655H65.9704C66.2043 4.87655 66.3513 4.98848 66.4115 5.21235L68.8372 13.8346L71.2529 5.21235C71.313 4.98848 71.4601 4.87655 71.6939 4.87655H75.0218C75.1421 4.87655 75.239 4.90947 75.3125 4.97531C75.3927 5.03457 75.4394 5.12346 75.4528 5.24198L77.1769 18.3481C77.1902 18.4798 77.1635 18.5819 77.0967 18.6543C77.0299 18.7267 76.9296 18.763 76.796 18.763H73.9493C73.702 18.763 73.5617 18.6379 73.5283 18.3877L72.6863 10.5852L70.5212 18.4173C70.461 18.6412 70.314 18.7531 70.0801 18.7531H67.6344C67.4005 18.7531 67.2535 18.6412 67.1933 18.4173L65.0282 10.5852L64.1461 18.3778Z" fill="#060D14"/>
<path d="M79.747 18.7531C79.4797 18.7531 79.346 18.6214 79.346 18.358V5.27161C79.346 5.00823 79.4797 4.87655 79.747 4.87655H85.1798C86.122 4.87655 86.9506 5.03457 87.6656 5.35062C88.3807 5.66008 88.932 6.10453 89.3195 6.68395C89.7138 7.25679 89.9109 7.92181 89.9109 8.67901C89.9109 9.05432 89.8408 9.42305 89.7004 9.78519C89.5601 10.1473 89.3697 10.4634 89.1291 10.7333C88.8885 11.0033 88.6246 11.1975 88.3372 11.316C88.7649 11.4609 89.1458 11.7045 89.4799 12.0469C89.8207 12.3827 90.0847 12.7811 90.2718 13.242C90.4589 13.6963 90.5525 14.1737 90.5525 14.6741C90.5525 15.4839 90.3553 16.1984 89.9611 16.8173C89.5668 17.4296 89.0055 17.907 88.2771 18.2494C87.5554 18.5852 86.7167 18.7531 85.7612 18.7531H79.747ZM84.859 10.2691C85.2867 10.2691 85.6309 10.1539 85.8915 9.92346C86.1521 9.68642 86.2824 9.39671 86.2824 9.05432C86.2824 8.71852 86.1588 8.44856 85.9115 8.24445C85.671 8.04033 85.3502 7.93827 84.9492 7.93827H82.9545V10.2691H84.859ZM85.4404 15.7901C85.8881 15.7901 86.2456 15.6551 86.5129 15.3852C86.7802 15.1086 86.9139 14.7432 86.9139 14.2889C86.9139 14.0387 86.8471 13.8049 86.7134 13.5877C86.5798 13.3638 86.3893 13.186 86.1421 13.0543C85.9015 12.9226 85.6242 12.8568 85.3101 12.8568H82.9545V15.7901H85.4404Z" fill="#060D14"/>
<path d="M104.756 18.2988C104.776 18.358 104.786 18.414 104.786 18.4667C104.786 18.5588 104.756 18.6313 104.696 18.684C104.636 18.73 104.552 18.7531 104.445 18.7531H101.559C101.331 18.7531 101.181 18.6444 101.107 18.4272L100.466 16.5802H95.4141L94.7726 18.4272C94.7057 18.6444 94.5554 18.7531 94.3215 18.7531H91.4447C91.3378 18.7531 91.2509 18.73 91.1841 18.684C91.124 18.6313 91.0939 18.5588 91.0939 18.4667C91.0939 18.414 91.1039 18.358 91.124 18.2988L96.2561 5.17284C96.3363 4.96214 96.4899 4.85679 96.7171 4.85679H99.193C99.4202 4.85679 99.5739 4.96214 99.6541 5.17284L104.756 18.2988ZM99.4536 13.6173L98.1104 9.72593L97.93 9.09383L97.7796 9.72593L96.4365 13.6173H99.4536Z" fill="#060D14"/>
<path d="M115.898 18.358C115.898 18.6214 115.765 18.7531 115.498 18.7531H106.857C106.59 18.7531 106.456 18.6214 106.456 18.358V5.27161C106.456 5.00823 106.59 4.87655 106.857 4.87655H109.664C109.931 4.87655 110.065 5.00823 110.065 5.27161V15.3556H115.498C115.765 15.3556 115.898 15.4872 115.898 15.7506V18.358Z" fill="#060D14"/>
<path d="M122.322 18.9901C121.246 18.9901 120.23 18.786 119.275 18.3778C118.326 17.9695 117.497 17.3737 116.789 16.5901C116.709 16.4979 116.669 16.4091 116.669 16.3235C116.669 16.2247 116.719 16.1259 116.819 16.0272L118.593 14.3679C118.68 14.2823 118.77 14.2395 118.864 14.2395C118.971 14.2395 119.068 14.2889 119.154 14.3877C119.582 14.8222 120.06 15.1514 120.588 15.3753C121.116 15.5926 121.664 15.7012 122.232 15.7012C122.8 15.7012 123.224 15.6058 123.505 15.4148C123.785 15.2239 123.926 14.9638 123.926 14.6346C123.926 14.4107 123.862 14.2165 123.735 14.0519C123.615 13.8872 123.378 13.7226 123.024 13.558C122.676 13.3934 122.165 13.2123 121.49 13.0148C120.374 12.6922 119.378 12.1786 118.503 11.4741C117.634 10.763 117.2 9.80494 117.2 8.6C117.2 7.88231 117.384 7.22058 117.751 6.61481C118.119 6.00905 118.68 5.5251 119.435 5.16296C120.19 4.79424 121.119 4.60988 122.222 4.60988C123.151 4.60988 124.039 4.77449 124.888 5.10371C125.737 5.43292 126.492 5.87737 127.153 6.43704C127.254 6.52263 127.304 6.61811 127.304 6.72346C127.304 6.81564 127.264 6.90782 127.183 7L125.56 8.79753C125.473 8.90288 125.376 8.95556 125.269 8.95556C125.182 8.95556 125.092 8.91934 124.998 8.84691C124.624 8.5572 124.2 8.31358 123.725 8.11605C123.251 7.91193 122.783 7.80988 122.322 7.80988C121.38 7.80988 120.909 8.08313 120.909 8.62963C120.909 8.86008 120.985 9.05432 121.139 9.21235C121.293 9.37037 121.497 9.50535 121.751 9.61728C122.011 9.72922 122.409 9.87737 122.943 10.0617C123.017 10.0815 123.127 10.1177 123.274 10.1704C124.223 10.4996 125.008 10.8519 125.63 11.2272C126.251 11.6025 126.732 12.0634 127.073 12.6099C127.414 13.1498 127.584 13.8016 127.584 14.5654C127.584 15.4477 127.367 16.2247 126.933 16.8963C126.498 17.5613 125.884 18.0782 125.088 18.4469C124.293 18.8091 123.371 18.9901 122.322 18.9901Z" fill="#060D14"/>
<path d="M140 18.358C140 18.6214 139.866 18.7531 139.599 18.7531H130.016C129.749 18.7531 129.616 18.6214 129.616 18.358V5.27161C129.616 5.00823 129.749 4.87655 130.016 4.87655H139.449C139.716 4.87655 139.85 5.00823 139.85 5.27161V7.69136C139.85 7.95473 139.716 8.08642 139.449 8.08642H133.224V10.2494H138.005C138.273 10.2494 138.406 10.3811 138.406 10.6444V12.8667C138.406 13.13 138.273 13.2617 138.005 13.2617H133.224V15.5432H139.599C139.866 15.5432 140 15.6749 140 15.9383V18.358Z" fill="#060D14"/>
</svg>
